<svg width="1024" height="261" xmlns="http://www.w3.org/2000/svg">

 <g>
  <title>background</title>
  <rect fill="none" id="canvas_background" height="263" width="1026" y="-1" x="-1"/>
 </g>
 <g>
  <title>Layer 1</title>
  <path stroke="null" id="svg_1" d="m0,0l1024,0l0,260.99999l-1024,0l0,-260.99999z" fill="#8bc53f"/>
  <path id="svg_3" fill="#373737" d="m82.02,67.183l40.648,0l0,13.373l-25.585,0l0,12.775l24.06,0l0,13.38l-24.06,0l0,29.09l-15.063,0l0,-68.61l0,-0.008zm76.17,30.43q4.734,0 6.768,-2.068q2.073,-2.068 2.073,-6.8q0,-4.688 -2.07,-6.71q-2.03,-2.022 -6.77,-2.022l-6.33,0l0,17.6l6.34,0l-0.011,0zm-6.338,12.224l0,25.96l-15.06,0l0,-68.61l23.002,0q11.54,0 16.9,4.55q5.4,4.55 5.4,14.38q0,6.8 -2.818,11.16q-2.777,4.36 -8.41,6.43q3.09,0.82 5.515,3.77q2.47,2.89 4.97,8.82l8.18,19.48l-16.04,0l-7.12,-17.05q-2.15,-5.15 -4.38,-7.03q-2.19,-1.89 -5.87,-1.89l-4.26,0l-0.009,0.03zm46.594,-42.65l40.646,0l0,13.37l-25.585,0l0,12.77l24.06,0l0,13.38l-24.06,0l0,15.71l26.446,0l0,13.37l-41.507,0l0,-68.61l0,0.01zm54.77,0l40.646,0l0,13.37l-25.585,0l0,12.77l24.06,0l0,13.38l-24.06,0l0,15.71l26.445,0l0,13.37l-41.507,0l0,-68.61l0.001,0.01zm77.654,0l14.436,0l10.093,49.86l10.01,-49.86l14.51,0l10.01,49.86l10.09,-49.86l14.32,0l-13.77,68.61l-17.369,0l-10.6,-52.16l-10.485,52.16l-17.37,0l-13.885,-68.61l0.01,0zm93.382,0l15.062,0l0,68.61l-15.062,0l0,-68.61zm29.888,0l40.647,0l0,13.37l-25.585,0l0,12.77l24.06,0l0,13.38l-24.06,0l0,29.09l-15.06,0l0,-68.61l-0.002,0zm54.77,0l15.062,0l0,68.61l-15.062,0l0,-68.61z"/>
  <path id="svg_4" fill="#373737" d="m86.802,197.734l-5.73,17.545l-5.827,0l21.87,-64.27l7.164,0l21.77,64.27l-6.02,0l-5.73,-17.55l-27.499,0l0.002,0.005zm13.846,-42.132l-12.318,37.348l24.45,0l-12.13,-37.343l-0.002,-0.005zm73.156,59.673l-30.848,-58.08q0.764,11.728 0.764,22.142l0,35.935l-5.443,0l0,-64.27l7.35,0l31.04,58.076q-0.77,-10.883 -0.77,-19.046l0,-39.03l5.44,0l0,64.27l-7.54,0l0.007,0.003zm46.034,0l-5.73,0l0,-25.052l-20.916,-39.218l6.398,0l17.573,34.245l17.287,-34.245l6.112,0l-20.725,39.124l0,25.145l0.001,0.001zm74.97,0l-14.325,-57.984l-14.326,57.983l-6.98,0l-14.42,-64.27l5.82,0l12.42,59.1l14.323,-59.104l6.4,0l14.61,59.107l12.517,-59.107l5.443,0l-14.322,64.27l-7.16,0l0,0.005zm40.78,-31.432l0,31.43l-5.73,0l0,-64.263l5.73,0l0,28.053l31.327,0l0,-28.053l5.73,0l0,64.27l-5.73,0l0,-31.432l-31.325,0l-0.002,-0.005zm63.99,-28.148l0,23.926l23.207,0l0,4.69l-23.205,0l0,26.27l28.173,0l0,4.693l-33.903,0l0,-64.27l33.235,0l-0.67,4.69l-26.835,0l-0.002,0.001zm48.898,30.775l0,28.804l-5.73,0l0,-64.27l15.854,0q23.304,0 23.304,17.45q0,6.94 -3.725,11.07q-3.73,4.13 -10.89,5.91l17.95,29.83l-6.88,0l-16.81,-28.81l-13.08,0l0.007,0.016zm10.887,-4.597q16.427,0 16.427,-13.417q0,-6.56 -4.107,-9.66q-4.107,-3.19 -13.275,-3.19l-9.932,0l0,26.27l10.887,0l0,-0.003zm45.46,-26.178l0,23.926l23.208,0l0,4.69l-23.208,0l0,26.27l28.177,0l0,4.693l-33.905,0l0,-64.27l33.236,0l-0.66,4.69l-26.84,0l-0.008,0.001z"/>
  <path id="svg_5" d="m645.366,259.306l145.964,0l0,148.694l-145.964,0l0,-148.694z" fill="#404041"/>
  <circle id="svg_6" fill="#fff" cx="665.076" cy="336.317" r="9.051"/>
  <circle id="svg_7" fill="#fff" cx="665.076" cy="298.194" r="9.051"/>
  <path id="svg_8" d="m647.67,235.676l141.454,0l0,23.644l-141.454,0l0,-23.644z" fill="#fff"/>
  <path id="svg_9" fill="#eec7af" d="m649.43,74.39c1.96,-4.71 6.23,-8.84 11.52,-9.2c3.31,-0.42 6.34,1.22 9.21,2.63c-0.05,55.98 0.04,111.95 -0.05,167.93c-7.48,-0.1 -14.96,-0.09 -22.44,-0.02c0.09,-47.92 0.03,-95.84 0.03,-143.77c0.09,-5.86 -0.69,-12.04 1.73,-17.57z"/>
  <path id="svg_10" fill="#eec7ae" d="m813.38,65.16c5.55,-0.73 10.99,-2.39 16.61,-2.5c6.17,0.15 12.09,4.48 13.79,10.47c1.26,4.35 2.11,9.13 0.67,13.55c-1.71,5.01 -6.27,8.78 -11.42,9.83c-6.52,1.41 -13.13,2.31 -19.66,3.6c0,-11.65 -0.01,-23.3 0.01,-34.95zm-0.01,41.29c4.54,-0.76 9.03,-1.96 13.65,-2.12c5.82,-0.27 11.51,3.42 13.78,8.76c1.55,3.76 2.13,7.91 1.92,11.97c-0.32,5.98 -5.01,11.27 -10.75,12.75c-6.11,1.59 -12.43,2.24 -18.6,3.56c-0.01,-11.64 0,-23.28 0,-34.92zm0,41.02c4.2,-0.76 8.37,-1.83 12.65,-1.98c6.21,-0.17 12.3,4 14.18,9.96c1.19,3.99 2.07,8.24 1.28,12.4c-1.11,5.49 -5.61,10.1 -11.09,11.31c-5.62,1.34 -11.37,2.02 -17.01,3.2c-0.02,-11.63 -0.01,-23.26 -0.01,-34.89zm0.01,39.18c3.7,0.17 7.67,0.02 10.97,1.98c3.64,1.97 6.31,5.52 7.29,9.53c1.64,5.69 1.96,12.53 -2.17,17.28c-3.81,4.95 -10.4,5.59 -16.1,6.6c0.01,-11.8 -0.02,-23.6 0.01,-35.39z"/>
  <path id="svg_11" stroke-linejoin="round" stroke-width="29.292" stroke="#404041" fill="#404041" d="m684.772,25.238l114.008,0l0,215.626l-114.01,0l0.002,-215.626z"/>
  <path id="svg_12" d="m681.13,38.31l121.345,0l0,177.01l-121.345,0l0,-177.01z" fill="#fff"/>
  <circle id="svg_13" fill="#929396" cx="742.309" cy="236.193" r="9.051"/>
  <path id="svg_14" d="m719.92,151.29l43.71,0l0,3.513l-43.71,0l0,-3.513z" fill="#929497"/>
  <path id="svg_15" d="m692.44,145.45l96.44,0l0,24.95l-96.44,0l0,-24.95z" fill="#8bc43e"/>
  <circle id="svg_16" fill="#404041" r="7.277" cy="137.653" cx="741.717"/>
  <path id="svg_17" fill="#404041" d="m692.33,95.41c11.5,-11.17 26.52,-19.03 42.62,-20.48c20.64,-2.38 41.53,6.01 56.16,20.46c-1.7,2.13 -3.58,4.11 -5.62,5.91c-11.15,-11.22 -26.56,-18.4 -42.46,-18.64c-12.88,-0.37 -25.71,3.81 -36.21,11.19c-3.24,2.26 -6.13,4.97 -9.25,7.38c-1.77,-1.93 -3.53,-3.86 -5.24,-5.82z"/>
  <path id="svg_18" fill="#404040" d="m705.95,109.18c7.93,-7.77 17.91,-13.85 29.07,-15.34c15.43,-2.45 31.51,3.88 42.05,15.2c-0.82,2.41 -3.17,3.88 -4.77,5.76c-8.04,-8.42 -19.5,-13.74 -31.23,-13.41c-11.36,0.01 -22.16,5.45 -30.07,13.42c-1.7,-1.87 -3.39,-3.74 -5.05,-5.63z"/>
  <path id="svg_19" fill="#404041" d="m719.32,122.06c5.74,-5.72 13.47,-9.68 21.68,-9.72c8.67,-0.35 17.06,3.6 23.08,9.69c-1.67,1.83 -3.35,3.67 -5,5.53c-4.84,-4.62 -11.28,-7.96 -18.13,-7.44c-6.36,-0.13 -12.04,3.3 -16.62,7.39c-1.66,-1.83 -3.34,-3.63 -5.01,-5.45z"/>
  <path id="svg_20" fill="#fff" d="m710.988,162.537q-0.906,0.47 -1.89,0.71q-0.98,0.238 -2.05,0.238q-3.187,0 -5.05,-1.777q-1.862,-1.786 -1.862,-4.836q0,-3.06 1.863,-4.837q1.86,-1.786 5.05,-1.786q1.06,0 2.05,0.23q0.98,0.24 1.88,0.71l0,2.64q-0.92,-0.63 -1.81,-0.92q-0.89,-0.29 -1.87,-0.29q-1.76,0 -2.77,1.12q-1.01,1.13 -1.01,3.11q0,1.97 1,3.1q1.01,1.13 2.77,1.13q0.98,0 1.87,-0.29q0.89,-0.29 1.8,-0.92l0,2.64l0.029,0.028zm7.123,-6.941q-1.017,0 -1.555,0.735q-0.53,0.72 -0.53,2.1q0,1.37 0.53,2.11q0.538,0.72 1.555,0.72q1,0 1.53,-0.73q0.53,-0.74 0.53,-2.11t-0.53,-2.1q-0.53,-0.74 -1.53,-0.74l0,0.015zm0,-2.188q2.47,0 3.854,1.334q1.393,1.333 1.393,3.69q0,2.36 -1.393,3.692q-1.385,1.333 -3.854,1.333q-2.478,0 -3.88,-1.333q-1.392,-1.333 -1.392,-3.69q0,-2.36 1.393,-3.692q1.41,-1.334 3.88,-1.334l-0.001,0zm17.098,3.974l0,5.828l-3.076,0l0,-4.46q0,-1.24 -0.06,-1.71q-0.05,-0.47 -0.188,-0.692q-0.18,-0.3 -0.487,-0.46q-0.307,-0.172 -0.7,-0.172q-0.957,0 -1.504,0.743q-0.547,0.735 -0.547,2.042l0,4.7l-3.06,0l0,-9.57l3.06,0l0,1.4q0.692,-0.84 1.47,-1.23q0.777,-0.4 1.717,-0.4q1.658,0 2.512,1.01q0.863,1.01 0.863,2.95l0,0.021zm12.476,0l0,5.828l-3.076,0l0,-4.46q0,-1.24 -0.06,-1.71q-0.05,-0.47 -0.188,-0.692q-0.18,-0.3 -0.487,-0.46q-0.308,-0.172 -0.7,-0.172q-0.958,0 -1.505,0.743q-0.546,0.735 -0.546,2.042l0,4.7l-3.06,0l0,-9.57l3.06,0l0,1.4q0.692,-0.84 1.47,-1.23q0.777,-0.4 1.717,-0.4q1.65,0 2.51,1.01q0.86,1.01 0.86,2.95l0.005,0.021zm12.406,1.017l0,0.87l-7.15,0q0.11,1.078 0.777,1.616q0.666,0.54 1.862,0.54q0.96,0 1.97,-0.283q1.01,-0.29 2.08,-0.872l0,2.358q-1.09,0.41 -2.17,0.616q-1.09,0.213 -2.17,0.213q-2.6,0 -4.04,-1.316q-1.44,-1.33 -1.44,-3.71q0,-2.34 1.41,-3.69q1.42,-1.34 3.89,-1.34q2.25,0 3.6,1.36q1.352,1.36 1.352,3.63l0.029,0.008zm-3.143,-1.017q0,-0.872 -0.513,-1.4q-0.504,-0.54 -1.324,-0.54q-0.89,0 -1.445,0.504q-0.555,0.496 -0.692,1.436l3.974,0zm13.185,-3.444l0,2.495q-0.624,-0.42 -1.257,-0.63q-0.623,-0.2 -1.298,-0.2q-1.282,0 -2,0.75q-0.71,0.75 -0.71,2.09t0.71,2.1q0.718,0.75 2,0.75q0.717,0 1.358,-0.21q0.65,-0.21 1.197,-0.63l0,2.506q-0.718,0.266 -1.462,0.395q-0.735,0.134 -1.478,0.134q-2.59,0 -4.05,-1.33t-1.46,-3.7q0,-2.364 1.46,-3.69q1.46,-1.332 4.05,-1.332q0.752,0 1.478,0.14q0.735,0.13 1.462,0.394l0,-0.032zm5.998,-3.016l0,2.717l3.153,0l0,2.188l-3.153,0l0,4.06q0,0.665 0.265,0.904q0.265,0.23 1.05,0.23l1.573,0l0,2.18l-2.623,0q-1.812,0 -2.572,-0.75q-0.752,-0.76 -0.752,-2.57l0,-4.06l-1.52,0l0,-2.19l1.52,0l0,-2.72l3.06,0l-0.001,0.011z"/>
  <path id="svg_21" fill="#efc7af" d="m762.94,169.71c3.22,-3.1 7.39,-5.54 12.01,-5.41c5.23,-0.21 9.84,2.78 13.61,6.1c1.43,2.36 2.63,4.86 3.58,7.46c3.67,10.8 5.87,22.1 10.19,32.69c1.35,8.65 4.75,16.79 6.67,25.31c0.86,-3.43 2.05,-6.84 4.32,-9.61c4.92,-3.96 11.37,-6.11 17.68,-5.74c4.75,0.31 8.45,3.61 11.29,7.14c1.35,-4.21 3.4,-8.58 7.51,-10.73c4.9,-2.56 10.66,-4.22 16.19,-3.16c4.02,0.68 6.96,3.68 9.49,6.65c0.98,-3.33 1.9,-6.93 4.5,-9.41c6.75,-5.69 18.44,-8.21 25.21,-1.21c3.39,3.33 4.27,8.2 5.6,12.57c5.15,17.8 12.27,42.366 17.49,60.146c-44.425,18.742 -88.115,27.803 -127.015,45.408c-2.09,-8.4 -7.515,-23.344 -9.935,-31.634c-3.44,-12.37 -7.13,-24.66 -10.74,-36.97c-0.38,-1.27 -0.75,-2.54 -1.11,-3.8c-3.85,-13.41 -7.82,-26.79 -11.71,-40.19c-2.7,-9.31 -5.54,-18.58 -8.13,-27.92c-1.82,-6.05 -0.27,-12.6 3.3,-17.69z"/>
  <path id="svg_22" fill="#f0daca" d="m766.24,177.1c1.39,-6.25 10.32,-8.43 14.89,-4.3c2.8,3.5 3.38,8.16 4.66,12.34c-5.49,1.92 -11.09,3.47 -16.71,4.9c-1.33,-4.19 -3.35,-8.44 -2.84,-12.94z"/>
  <circle id="svg_23" fill="#fff" r="9.051" cy="400.451" cx="841.874"/>
  <circle id="svg_24" fill="#fff" r="9.051" cy="371.514" cx="839.771"/>
  <path id="svg_25" fill="#dfb79e" d="m799.132,320.477l127.18,-44.683l3.08,9.682l-129.152,38.71l-1.108,-3.709z"/>
  <path id="svg_26" d="m798.59,323.397l134.913,-39.256l8.088,27.45l-134.91,39.26l-8.091,-27.454z" fill="#e6e7e8"/>
  <path id="svg_27" d="m803.237,347.402l138.55,-40.06l31.12,101.836l-138.55,40.06l-31.12,-101.836z" fill="#404040"/>
  <ellipse id="svg_28" fill="#fff" ry="9.051" rx="9.052" cy="400.452" cx="841.874"/>
  <circle id="svg_29" fill="#fff" r="9.051" cy="373.515" cx="839.771"/>
 </g>
</svg>